<svg width="36" height="31" viewBox="0 0 36 31" fill="none" xmlns="http://www.w3.org/2000/svg">
<path fill-rule="evenodd" clip-rule="evenodd" d="M2.42773 6.32139H15.9059L12.7345 1.70716C12.7345 1.70716 11.466 0.116048 9.72178 1.70716L2.42773 6.32139Z" stroke="white" stroke-width="0.3" stroke-miterlimit="10"/>
<path fill-rule="evenodd" clip-rule="evenodd" d="M28.1148 3.61621H18.1251L16.698 7.59399H1L3.85419 18.4136H16.698L20.9793 5.04821H28.1148V3.61621Z" stroke="white" stroke-width="0.3" stroke-miterlimit="10"/>
<path d="M26.6885 30.188C29.7536 30.188 32.2383 27.9084 32.2383 25.0964C32.2383 22.2845 29.7536 20.0049 26.6885 20.0049C23.6234 20.0049 21.1387 22.2845 21.1387 25.0964C21.1387 27.9084 23.6234 30.188 26.6885 30.188Z" stroke="white" stroke-width="0.3" stroke-miterlimit="10"/>
<path d="M10.9893 30.188C14.0543 30.188 16.5391 27.9084 16.5391 25.0964C16.5391 22.2845 14.0543 20.0049 10.9893 20.0049C7.92419 20.0049 5.43945 22.2845 5.43945 25.0964C5.43945 27.9084 7.92419 30.188 10.9893 30.188Z" stroke="white" stroke-width="0.3" stroke-miterlimit="10"/>
<path d="M16.5391 24.7783H21.1375" stroke="white" stroke-width="0.3" stroke-miterlimit="10"/>
<path d="M6.39057 22.2325L3.85352 22.3916V19.6867H17.9659L22.4057 6.32133H28.1141C28.1141 6.32133 29.8584 6.00311 30.1755 8.07155L32.3954 14.2769C32.3954 14.2769 35.5667 15.2316 35.2496 16.6636V22.7098C35.2496 22.7098 35.2496 23.9827 32.2368 23.6645H32.0783" stroke="white" stroke-width="0.3" stroke-miterlimit="10"/>
<path fill-rule="evenodd" clip-rule="evenodd" d="M23.832 9.02637V13.0042H29.3818L28.1133 9.02637H23.832Z" stroke="white" stroke-width="0.3" stroke-miterlimit="10"/>
<path d="M6.07422 10.7764L7.34275 15.0724" stroke="white" stroke-width="0.3" stroke-miterlimit="10"/>
<path d="M9.24609 10.9355L10.3561 15.0724" stroke="white" stroke-width="0.3" stroke-miterlimit="10"/>
<path d="M12.418 10.6172L13.5279 15.0723" stroke="white" stroke-width="0.3" stroke-miterlimit="10"/>
</svg>
