<svg width="30" height="50" viewBox="0 0 30 50" fill="none" xmlns="http://www.w3.org/2000/svg">
<path d="M17.9735 12.2264H1.94953C1.94953 12.2264 0.926178 12.1267 1.01146 13.0239C1.09674 13.9211 1.00293 17.0115 1.00293 17.0115C1.00293 17.0115 1.26729 18.5069 2.20536 18.2078C3.14344 17.9087 27.6185 18.2477 27.6185 18.2477C27.6185 18.2477 28.6419 18.1081 28.6419 17.0115C28.6419 15.9149 28.6419 13.0239 28.6419 13.0239C28.6419 13.0239 28.3861 11.9173 27.448 12.2264C26.5099 12.5254 20.7962 12.1765 20.7962 12.1765" stroke="#08090C" stroke-width="2" stroke-miterlimit="10"/>
<path d="M27.0218 18.2363L28.9832 45.4717C28.9832 45.4717 29.3158 48.7117 27.0218 48.9111C24.7192 49.1104 3.22891 48.9111 3.22891 48.9111C3.22891 48.9111 1.0884 48.5123 1.00312 46.4188C0.926369 44.3253 2.29084 25.7829 2.29084 25.7829" stroke="#08090C" stroke-width="2" stroke-miterlimit="10"/>
<path d="M2.20508 22.3941L2.63147 18.1572" stroke="#08090C" stroke-width="2" stroke-miterlimit="10"/>
<path d="M5.20801 12.2858C5.20801 12.2858 7.70669 10.7904 7.84313 10.2322C7.97958 9.66392 10.0263 4.83891 10.9388 5.97538" stroke="#08090C" stroke-width="2" stroke-miterlimit="10"/>
<path d="M11.7568 4.25016C11.7568 4.25016 13.2407 2.00712 13.6586 1.4987C14.0764 0.990283 17.0953 0.252574 17.9652 2.87443C18.835 5.50626 18.8606 3.40279 19.9436 4.25016C21.0267 5.09753 20.967 7.00161 20.967 7.00161C20.967 7.00161 21.6492 8.42719 22.7578 7.91876C23.8665 7.41034 25.6573 11.7269 24.9751 12.335" stroke="#08090C" stroke-width="2" stroke-miterlimit="10"/>
<path d="M12.2255 9.06608C12.5269 9.06608 12.7713 8.78043 12.7713 8.42806C12.7713 8.07569 12.5269 7.79004 12.2255 7.79004C11.924 7.79004 11.6797 8.07569 11.6797 8.42806C11.6797 8.78043 11.924 9.06608 12.2255 9.06608Z" stroke="#08090C" stroke-width="2" stroke-miterlimit="10"/>
<path d="M13.8881 9.68342C14.1801 9.68342 14.4168 9.4067 14.4168 9.06535C14.4168 8.72399 14.1801 8.44727 13.8881 8.44727C13.5961 8.44727 13.3594 8.72399 13.3594 9.06535C13.3594 9.4067 13.5961 9.68342 13.8881 9.68342Z" stroke="#08090C" stroke-width="2" stroke-miterlimit="10"/>
<path d="M14.8263 38.9139C18.1703 38.9139 20.8811 35.7449 20.8811 31.8358C20.8811 27.9268 18.1703 24.7578 14.8263 24.7578C11.4823 24.7578 8.77148 27.9268 8.77148 31.8358C8.77148 35.7449 11.4823 38.9139 14.8263 38.9139Z" stroke="#08090C" stroke-width="2" stroke-miterlimit="10"/>
<path d="M14.8262 24.7578V38.9139" stroke="#08090C" stroke-width="2" stroke-miterlimit="10"/>
<path d="M13.0186 31.8359H16.7879" stroke="#08090C" stroke-width="2" stroke-miterlimit="10"/>
<path d="M4.67871 42.7314H6.43546" stroke="#08090C" stroke-width="2" stroke-miterlimit="10"/>
<path d="M4.67871 44.7246H8.26043" stroke="#08090C" stroke-width="2" stroke-miterlimit="10"/>
</svg>
