<svg width="58" height="58" viewBox="0 0 58 58" fill="none" xmlns="http://www.w3.org/2000/svg">
<path d="M19.547 35.5531C23.1823 35.5531 26.1292 32.8858 26.1292 29.5956C26.1292 26.3054 23.1823 23.6382 19.547 23.6382C15.9118 23.6382 12.9648 26.3054 12.9648 29.5956C12.9648 32.8858 15.9118 35.5531 19.547 35.5531Z" stroke="#08090C" stroke-width="2" stroke-miterlimit="10"/>
<path d="M10.5722 54.6172C14.5379 54.6172 17.7527 51.4165 17.7527 47.4683C17.7527 43.52 14.5379 40.3193 10.5722 40.3193C6.60644 40.3193 3.3916 43.52 3.3916 47.4683C3.3916 51.4165 6.60644 54.6172 10.5722 54.6172Z" stroke="#08090C" stroke-width="2" stroke-miterlimit="10"/>
<path d="M30.9198 54.6172C34.8855 54.6172 38.1004 51.4165 38.1004 47.4683C38.1004 43.52 34.8855 40.3193 30.9198 40.3193C26.9541 40.3193 23.7393 43.52 23.7393 47.4683C23.7393 51.4165 26.9541 54.6172 30.9198 54.6172Z" stroke="#08090C" stroke-width="2" stroke-miterlimit="10"/>
<path d="M20.1473 39.1278C25.4349 39.1278 29.7214 34.8602 29.7214 29.5959C29.7214 24.3316 25.4349 20.064 20.1473 20.064C14.8597 20.064 10.5732 24.3316 10.5732 29.5959C10.5732 34.8602 14.8597 39.1278 20.1473 39.1278Z" stroke="#08090C" stroke-width="2" stroke-miterlimit="10"/>
<path d="M10.5741 56.9999C15.8617 56.9999 20.1481 52.7323 20.1481 47.468C20.1481 42.2036 15.8617 37.936 10.5741 37.936C5.28646 37.936 1 42.2036 1 47.468C1 52.7323 5.28646 56.9999 10.5741 56.9999Z" stroke="#08090C" stroke-width="2" stroke-miterlimit="10"/>
<path d="M30.9217 56.9999C36.2093 56.9999 40.4958 52.7323 40.4958 47.468C40.4958 42.2036 36.2093 37.936 30.9217 37.936C25.6341 37.936 21.3477 42.2036 21.3477 47.468C21.3477 52.7323 25.6341 56.9999 30.9217 56.9999Z" stroke="#08090C" stroke-width="2" stroke-miterlimit="10"/>
<path d="M14.1621 22.3905L37.9059 2.2173C37.9059 2.2173 43.1686 -1.87417 47.879 4.94494C47.879 4.94494 50.3019 8.52497 47.5635 13.1961C47.4508 13.4006 47.3156 13.6052 47.1803 13.8098L27.4145 36.7447" stroke="#08090C" stroke-width="2" stroke-miterlimit="10"/>
<path d="M54.7459 25.8955C54.7459 25.8955 60.6169 15.3386 47.4667 14.1064L24.9365 39.1277" stroke="#08090C" stroke-width="2" stroke-miterlimit="10"/>
<path d="M52.4642 29.5957L39.2998 52.234" stroke="#08090C" stroke-width="2" stroke-miterlimit="10"/>
<path d="M11.7689 33.1704L3.3916 40.3194" stroke="#08090C" stroke-width="2" stroke-miterlimit="10"/>
</svg>
