<svg width="57" height="36" viewBox="0 0 57 36" fill="none" xmlns="http://www.w3.org/2000/svg">
<path d="M27.3238 27.6378H5.11589C5.11589 27.6378 2.85197 28.2875 2.09734 30.9943C1.3427 33.7011 5.22369 35.0004 5.22369 35.0004H52.5502C52.5502 35.0004 55.461 34.7947 56 31.4382C56 31.4382 56 28.3633 52.119 27.6378C48.238 26.9124 27.3238 27.6378 27.3238 27.6378Z" stroke="#08090C" stroke-width="2" stroke-miterlimit="10"/>
<path d="M18.3526 22.333L16.9727 27.4651" stroke="#08090C" stroke-width="2" stroke-miterlimit="10"/>
<path d="M9.85891 27.6381C9.85891 27.6381 8.23105 27.8655 8.34963 25.2886L6.84036 17.612C6.84036 17.612 6.73255 15.36 8.34963 14.1365C9.96671 12.913 12.4247 12.4691 16.2194 10.4444C20.0142 8.41971 21.1785 6.2326 21.1785 6.2326L25.8141 1.89087C25.8141 1.89087 28.4014 0.331748 30.1263 1.33868C31.8512 2.34562 41.8771 5.45304 41.8771 5.45304" stroke="#08090C" stroke-width="2" stroke-miterlimit="10"/>
<path d="M46.0898 6.74121C46.0898 6.74121 48.4184 7.94304 51.0381 11.7326C53.6578 15.5221 52.9786 18.5537 54.5957 19.4308C56.2128 20.3078 51.9006 27.6378 51.9006 27.6378" stroke="#08090C" stroke-width="2" stroke-miterlimit="10"/>
<path d="M8.34766 13.7793C8.34766 13.7793 17.2739 16.1613 17.662 16.3778C18.0501 16.5944 20.4434 17.4822 19.6564 20.4056" stroke="#08090C" stroke-width="2" stroke-miterlimit="10"/>
<path d="M24.3594 16.1609L27.5396 15.3164" stroke="#08090C" stroke-width="2" stroke-miterlimit="10"/>
<path d="M21.3955 10.8555L25.0609 12.1547" stroke="#08090C" stroke-width="2" stroke-miterlimit="10"/>
<path d="M33.4697 25.1472L43.6466 20.4048C43.6466 20.4048 46.1908 19.4087 47.9156 22.3321C49.6405 25.2554 50.5245 27.4642 50.5245 27.4642" stroke="#08090C" stroke-width="2" stroke-miterlimit="10"/>
<path d="M41.9932 15.7383L45.4322 18.2177" stroke="#08090C" stroke-width="2" stroke-miterlimit="10"/>
<path d="M27.5371 1.17578L33.0352 11.5699C33.0352 11.5699 34.8787 14.2551 37.218 13.9628C39.5574 13.6704 43.2875 12.9125 43.7187 12.1546C44.1499 11.3967 47.6644 7.84537 47.6644 7.84537" stroke="#08090C" stroke-width="2" stroke-miterlimit="10"/>
</svg>
