<svg width="82" height="49" viewBox="0 0 82 49" fill="none" xmlns="http://www.w3.org/2000/svg">
<path d="M5.07597 21.5996L79.6515 22.6594L79.1038 29.1154L2.56679 27.3986L5.07597 21.5996Z" stroke="#08090C" stroke-miterlimit="10"/>
<path d="M15.6219 28.0076L19.0898 21.4111" stroke="#08090C" stroke-miterlimit="10"/>
<path d="M10.5986 21.769L6.89053 27.1436" stroke="#08090C" stroke-miterlimit="10"/>
<path d="M14.8613 21.9048L11.1722 27.2734" stroke="#08090C" stroke-miterlimit="10"/>
<path d="M22.8203 21.9844L19.7276 27.7206" stroke="#08090C" stroke-miterlimit="10"/>
<path d="M27.4434 21.8823L24.3507 27.6186" stroke="#08090C" stroke-miterlimit="10"/>
<path d="M31.6396 22.4863L28.5659 28.2166" stroke="#08090C" stroke-miterlimit="10"/>
<path d="M35.6973 22.1128L32.6046 27.849" stroke="#08090C" stroke-miterlimit="10"/>
<path d="M40.2021 22.1553L37.1284 27.8855" stroke="#08090C" stroke-miterlimit="10"/>
<path d="M45.0674 22.0332L41.7194 28.2827" stroke="#08090C" stroke-miterlimit="10"/>
<path d="M49.7197 22.4214L46.627 28.1576" stroke="#08090C" stroke-miterlimit="10"/>
<path d="M54.5615 22.4136L51.4878 28.1438" stroke="#08090C" stroke-miterlimit="10"/>
<path d="M58.6289 22.2007L55.1967 28.5798" stroke="#08090C" stroke-miterlimit="10"/>
<path d="M62.3965 22.4263L59.5789 28.2403" stroke="#08090C" stroke-miterlimit="10"/>
<path d="M66.8965 22.1416L63.3336 28.7681" stroke="#08090C" stroke-miterlimit="10"/>
<path d="M70.5889 22.7842L67.5021 28.5391" stroke="#08090C" stroke-miterlimit="10"/>
<path d="M74.7324 22.5474L71.2871 28.9513" stroke="#08090C" stroke-miterlimit="10"/>
<path d="M78.752 23.1108L75.6652 28.8658" stroke="#08090C" stroke-miterlimit="10"/>
<path d="M3.97514 32.5766L78.5477 30.259L78.2953 36.7246L1.72803 38.4781L3.97514 32.5766Z" stroke="#08090C" stroke-miterlimit="10"/>
<path d="M14.7986 38.4839L17.9736 31.7534" stroke="#08090C" stroke-miterlimit="10"/>
<path d="M9.4541 32.4741L6.08158 38.0516" stroke="#08090C" stroke-miterlimit="10"/>
<path d="M13.7305 32.3994L10.3579 37.9769" stroke="#08090C" stroke-miterlimit="10"/>
<path d="M21.708 32.1377L18.8892 38.0139" stroke="#08090C" stroke-miterlimit="10"/>
<path d="M26.3076 31.8374L23.5078 37.7076" stroke="#08090C" stroke-miterlimit="10"/>
<path d="M30.5508 32.2485L27.732 38.1248" stroke="#08090C" stroke-miterlimit="10"/>
<path d="M34.5947 31.6914L31.7759 37.5676" stroke="#08090C" stroke-miterlimit="10"/>
<path d="M39.0996 31.5444L36.2749 37.4019" stroke="#08090C" stroke-miterlimit="10"/>
<path d="M43.9414 31.2095L40.8804 37.5743" stroke="#08090C" stroke-miterlimit="10"/>
<path d="M48.6025 31.3643L45.8027 37.2345" stroke="#08090C" stroke-miterlimit="10"/>
<path d="M53.459 31.147L50.6533 36.9985" stroke="#08090C" stroke-miterlimit="10"/>
<path d="M57.5029 30.728L54.3695 37.2599" stroke="#08090C" stroke-miterlimit="10"/>
<path d="M61.29 30.8096L58.7405 36.7449" stroke="#08090C" stroke-miterlimit="10"/>
<path d="M65.7607 30.3042L62.5157 37.0774" stroke="#08090C" stroke-miterlimit="10"/>
<path d="M69.4863 30.7964L66.6675 36.6726" stroke="#08090C" stroke-miterlimit="10"/>
<path d="M73.6113 30.3618L70.4648 36.9184" stroke="#08090C" stroke-miterlimit="10"/>
<path d="M77.6543 30.7446L74.8355 36.6208" stroke="#08090C" stroke-miterlimit="10"/>
</svg>
