<svg width="133" height="133" viewBox="0 0 133 133" fill="none" xmlns="http://www.w3.org/2000/svg">
<path opacity="0.5" d="M66.5 133C103.227 133 133 103.227 133 66.5C133 29.7731 103.227 0 66.5 0C29.7731 0 0 29.7731 0 66.5C0 103.227 29.7731 133 66.5 133Z" fill="#FFB600"/>
<path d="M66.5 115C92.7335 115 114 93.5097 114 67C114 40.4903 92.7335 19 66.5 19C40.2665 19 19 40.4903 19 67C19 93.5097 40.2665 115 66.5 115Z" fill="#FFB600"/>
<g clip-path="url(#clip0)">
<path d="M43.3399 41.4229H59.3537V40.0273V40.021C59.3537 39.9746 59.3547 39.9302 59.3604 39.8848C59.3964 39.1074 59.7263 38.4019 60.2324 37.8896L60.2291 37.8862C60.7592 37.3472 61.4953 37.0122 62.3058 37.0044L62.3169 37.0054V37H62.3317H71.8795H71.8872C71.9381 37 71.9866 37.0044 72.0356 37.0107C72.7957 37.0518 73.4852 37.3818 73.987 37.8945C74.5162 38.4336 74.8446 39.1812 74.8528 40.0015L74.8513 40.0117H74.8581V40.0273V41.4224H90.6601H90.6683C90.7345 41.4224 90.797 41.4292 90.8608 41.439C91.4284 41.4907 91.9431 41.7441 92.3177 42.1274L92.3196 42.1309L92.322 42.1274C92.7306 42.5459 92.9875 43.1274 92.9947 43.772L92.9938 43.7876H93.0005V43.8032V49.0908C93.0005 49.8096 92.4267 50.3921 91.7198 50.3921H91.6862H42.2806C41.5738 50.3916 41 49.8091 41 49.0908V49.0601V43.8032V43.7964C41 43.7446 41.0019 43.6934 41.0086 43.6426V43.6323C41.0514 43.043 41.3083 42.5073 41.6915 42.1196L41.6881 42.1187C42.102 41.6982 42.6758 41.437 43.3096 41.4282L43.325 41.4292V41.4229H43.3399ZM78.3528 60.9731H75.4981V88.3623H78.3528V60.9731ZM69.071 60.9731H66.2149V88.3623H69.071V60.9731ZM59.7892 60.9731H56.9341V88.3623H59.7892V60.9731ZM46.2036 52.4146H88.1637L88.2976 52.4233L88.3586 52.4268L88.423 52.4321H88.4273L88.5056 52.4434C89.16 52.5229 89.7723 52.8286 90.2207 53.2773C90.7201 53.7778 91.0394 54.4565 91.0394 55.2129C91.0394 55.2607 91.0351 55.3071 91.0303 55.3525L91.0294 55.3857L91.0226 55.4609L87.4727 94.1987L87.4693 94.2197H87.4727L87.465 94.2876L87.4405 94.4258L87.4396 94.4282L87.4386 94.437C87.4122 94.5986 87.381 94.7524 87.3383 94.8901L87.3349 94.9009L87.3339 94.9033L87.3296 94.9121L87.3186 94.9424L87.3167 94.9526C87.26 95.1255 87.1899 95.2935 87.1092 95.4453C86.6247 96.3633 85.7268 97.0015 84.6104 97.0015H49.7056L49.587 96.9946V96.9961L49.5817 96.9946L49.5663 96.9927C49.3454 96.9814 49.1394 96.9482 48.9478 96.894C48.7486 96.8374 48.5551 96.7544 48.3731 96.6523L48.3688 96.6514L48.3678 96.6523C47.5107 96.1753 46.9393 95.2451 46.8456 94.2002L43.3433 55.4521L43.338 55.3911L43.3327 55.2705L43.3308 55.2139H43.3284C43.3284 54.4556 43.6472 53.7754 44.148 53.2749C44.6167 52.8086 45.262 52.4941 45.9516 52.4321L46.0101 52.4302V52.4268L46.1542 52.4204L46.2041 52.4214V52.4146H46.2036ZM88.1642 55.019H46.2036V55.0156L46.1479 55.0176C46.0697 55.0283 45.9933 55.0693 45.9376 55.126C45.9074 55.1567 45.8877 55.1904 45.8877 55.2134H45.8843L45.8877 55.271L49.3843 93.9644H49.3834L49.3843 93.9702C49.3997 94.1538 49.4813 94.3076 49.599 94.373L49.598 94.375L49.6383 94.3906L49.6686 94.3965H49.7056H84.6118C84.7112 94.3965 84.8034 94.3198 84.8606 94.2124L84.9009 94.1162L84.9268 94.0107L84.9335 93.9434H84.9359L88.4816 55.2666L88.4801 55.2129C88.4801 55.1909 88.4604 55.1587 88.4307 55.1289C88.373 55.0713 88.2933 55.0303 88.2141 55.0181L88.1642 55.019ZM88.2175 55.0181H88.2098H88.2175ZM88.4811 55.2681V55.2661V55.2681ZM91.0246 55.4521L91.0236 55.4609L91.0246 55.4521ZM60.6329 44.0259H43.5603V47.7886H90.4397V44.0259H73.6072H73.5769C72.8701 44.0259 72.2978 43.4438 72.2978 42.7251V40.0273V40.0117H72.3011C72.2978 39.9043 72.2502 39.8003 72.1768 39.7261C72.111 39.6572 72.0212 39.6143 71.9266 39.603H71.8872H71.8795H62.3317H62.3169V39.6001C62.2146 39.6035 62.1142 39.6509 62.0403 39.7266L62.0384 39.7246L62.035 39.7266C61.9721 39.792 61.9241 39.8794 61.9106 39.9712L61.914 40.021V40.0273V42.7246C61.9135 43.4434 61.3397 44.0259 60.6329 44.0259Z" fill="black"/>
</g>
<defs>
<clipPath id="clip0">
<rect width="52" height="60" fill="white" transform="translate(41 37)"/>
</clipPath>
</defs>
</svg>
