<svg width="120" height="120" viewBox="0 0 120 120" fill="none" xmlns="http://www.w3.org/2000/svg">
<path d="M112.978 63.7026C112.863 62.354 111.995 61.2466 110.713 60.8123L100.309 57.2892L110.437 45.6688C111.11 44.8974 111.391 43.8774 111.21 42.8706C111.028 41.8637 110.407 41.0066 109.507 40.5191L96.4403 33.4393C95.5865 32.9768 94.5201 33.2937 94.0572 34.1473C93.5947 35.0009 93.9118 36.0678 94.7652 36.5302L107.653 43.5128L96.8591 55.896L62.7665 37.4241L69.0926 30.1667C69.8205 30.4338 70.6066 30.5796 71.426 30.5796C73.9702 30.5796 76.1909 29.1727 77.3541 27.0968L87.1227 32.3895C87.3889 32.5336 87.6756 32.6021 87.9585 32.6021C88.5828 32.6021 89.1873 32.2688 89.5058 31.6812C89.9682 30.8276 89.6511 29.7607 88.7975 29.2983L78.2122 23.5633C78.0928 19.9223 75.0959 16.9966 71.4262 16.9966C67.6814 16.9966 64.6347 20.0432 64.6347 23.7881C64.6347 25.4369 65.2258 26.9498 66.2065 28.1276L59.9992 35.2489L49.0021 22.6326C47.9638 21.4413 46.2685 21.135 44.8784 21.8878L40.5797 24.2168C40.0761 20.2336 36.6689 17.1421 32.5512 17.1421C28.0877 17.1421 24.4563 20.7736 24.4563 25.2373C24.4563 27.7052 25.5679 29.9175 27.3152 31.4035L10.4907 40.5191C9.59119 41.0066 8.97103 41.8634 8.78892 42.8706C8.60728 43.8774 8.88853 44.8974 9.56096 45.6685L19.6893 57.2889L9.28557 60.8118C8.00329 61.2461 7.1354 62.3536 7.02055 63.7022C6.90571 65.0508 7.57368 66.2892 8.76385 66.934L20.9812 73.5532V80.1882C20.9812 81.159 21.768 81.946 22.739 81.946C23.71 81.946 24.4968 81.159 24.4968 80.1882V75.458L41.5894 84.7187C42.3186 85.1138 43.1321 85.3147 43.9487 85.3147C44.4826 85.3147 45.0181 85.2287 45.5319 85.0548L58.2416 80.7514V115.726L25.2459 97.8477C24.7839 97.5974 24.4971 97.1156 24.4971 96.5901V88.866C24.4971 87.8952 23.7103 87.1082 22.7392 87.1082C21.7682 87.1082 20.9814 87.8952 20.9814 88.866V96.5901C20.9814 98.407 21.9735 100.073 23.571 100.939L57.6433 119.4C58.3811 119.8 59.1904 119.999 59.9997 119.999C60.809 119.999 61.6183 119.799 62.3561 119.4L96.4283 100.939C98.0256 100.073 99.018 98.407 99.018 96.5901V73.553L111.235 66.9337C112.425 66.2897 113.093 65.0515 112.978 63.7026ZM63.8852 50.1037C70.0385 51.8333 74.336 57.5076 74.336 63.9026C74.336 65.6833 74.0161 67.4116 73.3838 69.0492L59.9992 76.3011L46.6147 69.0492C45.9826 67.4116 45.6624 65.6833 45.6624 63.9026C45.6624 57.4879 49.9764 51.8087 56.1536 50.0919C57.0887 49.832 57.6362 48.8629 57.3763 47.9277C57.1166 46.9923 56.147 46.445 55.2121 46.7047C47.5196 48.8429 42.147 55.9148 42.147 63.9026C42.147 64.8658 42.2251 65.8167 42.3751 66.7523L26.429 58.1125L59.9997 39.9235L93.5701 58.1128L77.6241 66.7526C77.7741 65.8169 77.8521 64.8661 77.8521 63.9028C77.8521 55.9394 72.5002 48.8734 64.837 46.7193C63.9023 46.4563 62.9317 47.0014 62.6692 47.9357C62.4058 48.8704 62.9503 49.8409 63.8852 50.1037ZM71.426 20.5127C73.2324 20.5127 74.7021 21.9822 74.7021 23.7886C74.7021 25.5949 73.2324 27.0647 71.426 27.0647C69.6197 27.0647 68.1501 25.5949 68.1501 23.7886C68.1501 21.9822 69.6197 20.5127 71.426 20.5127ZM32.5512 20.6582C35.0761 20.6582 37.1307 22.7126 37.1307 25.2377C37.1307 27.7627 35.0761 29.8172 32.5512 29.8172C30.0262 29.8172 27.9719 27.7629 27.9719 25.2377C27.9719 22.7126 30.0262 20.6582 32.5512 20.6582ZM31.3109 33.2377C31.7154 33.3003 32.1295 33.3328 32.5512 33.3328C35.8273 33.3328 38.6527 31.3756 39.9256 28.5701L46.438 25.0418L57.2315 37.4246L23.1389 55.8965L12.3451 43.5132L31.3109 33.2377ZM44.4041 81.7255C44.0281 81.853 43.6123 81.8171 43.264 81.6282L23.5842 70.9657C23.579 70.9629 23.5736 70.9601 23.5685 70.9573L10.7682 64.0221L22.5756 60.0239L55.6204 77.9279L44.4041 81.7255ZM95.5016 96.5908C95.5016 97.1163 95.2145 97.5981 94.7528 97.8485L61.757 115.726V80.7521L74.4668 85.0555C74.9806 85.2294 75.5161 85.3154 76.0503 85.3154C76.8664 85.3154 77.6801 85.1143 78.4093 84.7194L95.5019 75.4587V96.5908H95.5016ZM76.7342 81.6282C76.3859 81.8171 75.9701 81.853 75.5942 81.7255L64.3781 77.9279L97.4228 60.0239L109.23 64.0221L76.7342 81.6282ZM109.585 64.1423C109.585 64.1423 109.585 64.1421 109.584 64.1421L109.585 64.1423Z" fill="#8A8A8A"/>
<path d="M73.1445 99.5359L69.1121 101.721C68.2585 102.183 67.9416 103.25 68.404 104.104C68.7223 104.691 69.327 105.024 69.9514 105.024C70.234 105.024 70.5211 104.956 70.7871 104.812L74.8196 102.627C75.6732 102.165 75.99 101.098 75.5276 100.244C75.0652 99.3906 73.9988 99.0733 73.1445 99.5359Z" fill="#8A8A8A"/>
<path d="M39.3039 14.8031C39.6472 15.1462 40.0972 15.318 40.547 15.318C40.9968 15.318 41.4468 15.1464 41.7901 14.8031L43.2402 13.353L44.6903 14.8031C45.0336 15.1462 45.4836 15.318 45.9334 15.318C46.3832 15.318 46.8332 15.1464 47.1765 14.8031C47.863 14.1166 47.863 13.0035 47.1765 12.3173L45.7262 10.867L47.1765 9.41666C47.863 8.73018 47.863 7.61713 47.1765 6.93088C46.4898 6.24439 45.377 6.24439 44.6905 6.93088L43.2404 8.38096L41.7903 6.93088C41.1036 6.24439 39.9908 6.24439 39.3043 6.93088C38.6179 7.61736 38.6179 8.73041 39.3043 9.41666L40.7546 10.867L39.3043 12.3173C38.6174 13.0035 38.6174 14.1166 39.3039 14.8031Z" fill="#8A8A8A"/>
<path d="M91.3429 26.3182C91.6863 26.6613 92.1363 26.8331 92.5861 26.8331C93.0358 26.8331 93.4858 26.6616 93.8292 26.3182L95.2793 24.8681L96.7293 26.3182C97.0727 26.6613 97.5227 26.8331 97.9725 26.8331C98.4222 26.8331 98.8722 26.6616 99.2156 26.3182C99.9021 25.6317 99.9021 24.5187 99.2156 23.8324L97.7653 22.3821L99.2156 20.9318C99.9021 20.2453 99.9021 19.1323 99.2156 18.446C98.5289 17.7595 97.4161 17.7595 96.7296 18.446L95.2795 19.8961L93.8294 18.446C93.1427 17.7595 92.0299 17.7595 91.3434 18.446C90.6569 19.1325 90.6569 20.2455 91.3434 20.9318L92.7937 22.3821L91.3434 23.8324C90.6564 24.5187 90.6564 25.6317 91.3429 26.3182Z" fill="#8A8A8A"/>
<path d="M81.6389 15.3166C85.8619 15.3166 89.2973 11.8812 89.2973 7.65844C89.2971 3.43547 85.8616 0 81.6389 0C77.4162 0 73.9805 3.43547 73.9805 7.65844C73.9805 11.8812 77.4159 15.3166 81.6389 15.3166ZM81.6389 3.51562C83.9231 3.51562 85.7817 5.37398 85.7817 7.65844C85.7817 9.94266 83.9231 11.801 81.6389 11.801C79.3547 11.801 77.4961 9.94266 77.4961 7.65844C77.4961 5.37398 79.3547 3.51562 81.6389 3.51562Z" fill="#8A8A8A"/>
<path d="M59.7998 65.7461C58.1062 65.7461 56.5077 66.3076 55.2965 67.329C54.5545 67.9548 54.46 69.0639 55.086 69.8059C55.7116 70.5482 56.8206 70.6424 57.5629 70.0166C58.1324 69.5364 58.9471 69.2615 59.8 69.2615H59.8117C60.6688 69.264 61.4866 69.5441 62.0559 70.03C62.387 70.3126 62.7927 70.4507 63.1961 70.4507C63.6927 70.4507 64.1863 70.2414 64.5339 69.834C65.1642 69.0958 65.0765 67.986 64.3382 67.3558C63.1279 66.3226 61.5238 65.7508 59.8218 65.7456C59.8145 65.7461 59.807 65.7461 59.7998 65.7461Z" fill="#8A8A8A"/>
<path d="M52.3642 60.5402H52.3478C51.3761 60.5259 50.593 61.3153 50.586 62.2859C50.5794 63.2566 51.369 64.0491 52.3398 64.0558H52.3522C53.3172 64.0558 54.103 63.2768 54.1098 62.3102C54.1166 61.3394 53.3352 60.547 52.3642 60.5402Z" fill="#8A8A8A"/>
<path d="M67.3067 64.0201C67.3128 64.0212 67.3191 64.0219 67.3252 64.0231C67.3758 64.033 67.4272 64.0412 67.4792 64.0465C67.4961 64.0482 67.5132 64.0482 67.53 64.0494C67.5692 64.0522 67.6083 64.0559 67.6484 64.0562H67.6608C67.7213 64.0562 67.7811 64.0531 67.8401 64.047C68.7277 63.9582 69.4205 63.2091 69.4205 62.2981C69.4205 61.399 68.7453 60.6591 67.8746 60.5544C67.8666 60.5534 67.8589 60.5515 67.8509 60.5508C67.8108 60.5466 67.7698 60.5455 67.7288 60.5438C67.71 60.5431 67.6918 60.5408 67.6728 60.5405H67.6636C67.6634 60.5405 67.6629 60.5405 67.6627 60.5405H67.6564H67.6461C67.6454 60.5405 67.6447 60.5405 67.644 60.5405C66.679 60.5405 65.9014 61.3196 65.8946 62.2862C65.8887 63.14 66.499 63.8553 67.3067 64.0201Z" fill="#8A8A8A"/>
</svg>
