<svg width="33" height="33" viewBox="0 0 33 33" fill="none" xmlns="http://www.w3.org/2000/svg">
<path d="M7.85394 5.96161L7.73754 5.86701L7.64293 5.98341L5.69584 8.3792L5.92865 8.56841L7.78114 6.28903L9.18244 7.42788L9.37165 7.19507L7.85394 5.96161ZM10.6556 8.23853L10.5392 8.14392L10.4445 8.26033L8.49745 10.6561L8.73026 10.8453L10.5828 8.56594L11.984 9.7048L12.1733 9.47199L10.6556 8.23853ZM13.4552 10.5139L13.3388 10.4193L13.2442 10.5357L11.2971 12.9314L11.5299 13.1207L13.3824 10.8413L14.7837 11.9801L14.9729 11.7473L13.4552 10.5139ZM16.2568 12.7908L16.1404 12.6962L16.0458 12.8126L14.0987 15.2084L14.3315 15.3976L16.184 13.1182L17.5853 14.257L17.7745 14.0242L16.2568 12.7908ZM6.66265 2.40686L6.6628 2.40669C7.63201 1.21038 9.54924 1.10618 10.9262 2.22522L20.6695 10.1437C22.0483 11.2644 22.3384 13.1625 21.3672 14.3575L16.7004 20.0998C15.7278 21.2964 13.8119 21.3989 12.4349 20.2798L2.69165 12.3613C1.3129 11.2408 1.02458 9.34419 1.99583 8.14913L6.66265 2.40686ZM26.0157 21.7326L25.999 21.8124L26.0568 21.8698L28.5331 24.3278C28.6811 24.5225 28.7518 24.677 28.7746 24.7872C28.7974 24.8982 28.7694 24.9434 28.7517 24.96C28.7308 24.9797 28.6778 25.0041 28.5712 24.9848C28.4671 24.9659 28.3312 24.9072 28.1798 24.7934L28.1802 24.7928L28.1682 24.7855L25.1766 22.9454L25.1089 22.9038L25.0365 22.9364C23.797 23.4941 23.0538 23.7546 22.3876 23.7021C21.7548 23.6523 21.1668 23.3173 20.2683 22.5981L24.5424 17.3391C25.3927 18.0369 25.8715 18.5139 26.0932 19.0959C26.3241 19.7022 26.2849 20.4485 26.0157 21.7326ZM24.3827 15.9731L18.8984 22.7213L16.996 21.1751L22.4802 14.427L24.3827 15.9731Z" stroke="#F5F5F5" stroke-width="0.3"/>
<path d="M27.8602 28.0619L27.9142 28.0887C28.0928 27.7303 28.2741 27.5013 28.4397 27.2922L28.4417 27.2897L28.4417 27.2896L28.4426 27.2885C28.4434 27.2875 28.4442 27.2865 28.445 27.2854L30.58 28.3858C30.5802 28.3867 30.5804 28.3876 30.5806 28.3885C30.603 28.4796 30.6161 28.575 30.6161 28.6754C30.6161 28.8716 30.5818 29.0556 30.5119 29.2262L30.5118 29.2264C30.5114 29.2275 30.5109 29.2286 30.5104 29.2297C30.5104 29.2297 30.5104 29.2297 30.5104 29.2297C30.4401 29.3997 30.3346 29.5542 30.1976 29.693L30.1975 29.6931C30.1962 29.6944 30.1949 29.6957 30.1937 29.697L30.2373 29.7402M27.8602 28.0619L27.9141 28.0887C27.9135 28.09 27.9128 28.0913 27.9122 28.0926L27.9122 28.0927C27.8684 28.1808 27.8322 28.2726 27.8066 28.369C27.8066 28.369 27.8066 28.369 27.8066 28.369C27.8064 28.3697 27.8062 28.3705 27.806 28.3712L27.806 28.3713C27.7806 28.4679 27.7664 28.5687 27.7664 28.6754C27.7664 28.8719 27.8007 29.056 27.8706 29.2263L27.8706 29.2264C27.8711 29.2275 27.8716 29.2286 27.872 29.2297L27.817 29.2524M27.8602 28.0619C27.8138 28.1554 27.7756 28.2522 27.7491 28.354C27.7222 28.4569 27.707 28.5638 27.707 28.6754C27.707 28.8813 27.7438 29.0737 27.817 29.2524M27.8602 28.0619C28.0411 27.6976 28.223 27.4678 28.3959 27.2494L28.3973 27.2476C28.6654 26.9095 28.9112 26.5993 29.0908 25.8132L28.1448 29.7402M27.817 29.2524L27.8721 29.2298C27.9424 29.3996 28.0474 29.5541 28.1845 29.693L28.1846 29.6931C28.1859 29.6944 28.1871 29.6956 28.1884 29.6969L28.1448 29.7402M27.817 29.2524C27.8902 29.4303 27.9995 29.593 28.1448 29.7402M28.1448 29.7402L28.1885 29.697C28.3261 29.8351 28.479 29.9412 28.6463 30.0123L28.6466 30.0124C28.6479 30.0129 28.6491 30.0135 28.6504 30.014L28.6258 30.072L28.6504 30.014C28.8183 30.0844 28.9994 30.1192 29.1919 30.1192C29.3842 30.1192 29.5648 30.0842 29.7326 30.0136C29.7326 30.0136 29.7326 30.0136 29.7326 30.0136C29.7336 30.0132 29.7346 30.0128 29.7356 30.0124L29.7357 30.0123C29.9035 29.9412 30.0561 29.835 30.1936 29.697L30.2373 29.7402M30.2373 29.7402C30.3826 29.593 30.4922 29.4303 30.5654 29.2524L29.7574 30.0721C29.9317 29.9982 30.0916 29.8873 30.2373 29.7402ZM29.6732 28.9233C29.7478 28.7776 29.7871 28.6088 29.8041 28.4254C29.8104 28.3496 29.8759 28.2935 29.9501 28.3004L29.6732 28.9233ZM29.6732 28.9233C29.6011 29.0639 29.4936 29.1853 29.338 29.2785L29.6732 28.9233Z" stroke="#F5F5F5" stroke-width="0.3"/>
</svg>
