<svg width="32" height="29" viewBox="0 0 32 29" fill="none" xmlns="http://www.w3.org/2000/svg">
<path d="M31.3307 9.7424C31.4024 9.70022 31.4638 9.64344 31.5109 9.57606C31.5716 9.48923 31.6062 9.38802 31.6113 9.28382C31.6165 9.17962 31.5922 9.07575 31.5405 8.98377C31.4889 8.89182 31.4119 8.81505 31.3174 8.76272L31.3307 9.7424ZM31.3307 9.7424H31.319L31.2357 9.78321L16.257 17.1234C16.2569 17.1235 16.2568 17.1236 16.2566 17.1237C16.1768 17.1626 16.0886 17.1829 15.999 17.1829C15.9094 17.1829 15.8212 17.1626 15.7414 17.1237L31.3307 9.7424ZM28.9055 20.1783C28.8473 20.1153 28.804 20.0399 28.7794 19.9577C28.7368 19.8152 28.7532 19.6618 28.8256 19.5307C28.8982 19.3994 29.0218 19.3001 29.1707 19.2569C29.3197 19.2136 29.48 19.2305 29.6158 19.3034L29.6158 19.3034L29.6205 19.3059L31.2898 20.1734L31.2899 20.1735C31.4269 20.2446 31.528 20.3655 31.5728 20.5079C31.6176 20.6502 31.6034 20.8042 31.5328 20.9366L31.5314 20.9392C31.4729 21.0508 31.3785 21.1417 31.2614 21.1971L31.2614 21.1971L31.2567 21.1993L16.257 28.5397C16.1771 28.5787 16.0887 28.5992 15.999 28.5992C15.9094 28.5992 15.8212 28.5788 15.7414 28.5399L28.9055 20.1783ZM28.9055 20.1783L29.2675 20.0009V20.6424V20.6475V21.3162L28.8542 21.0943L16.1763 27.3077L16.0003 27.3939L15.8243 27.3077L2.94933 21.0016L2.3461 20.7061L2.89326 20.3165C3.01258 20.2316 3.09319 20.1061 3.12063 19.9666C3.14806 19.8272 3.12074 19.6823 3.0433 19.5612C2.96573 19.4398 2.84315 19.3507 2.69932 19.3137C2.55539 19.2767 2.4027 19.2953 2.27275 19.365L2.26699 19.3681L2.26697 19.3681L0.707805 20.1722C0.707329 20.1725 0.706854 20.1727 0.706379 20.173C0.59891 20.2301 0.514309 20.3195 0.464254 20.4266L0.461583 20.4324L0.461538 20.4323C0.396695 20.5656 0.387675 20.7182 0.436076 20.8577C0.484446 20.997 0.586966 21.1139 0.723563 21.1817C0.723819 21.1818 0.724076 21.1819 0.724332 21.1821L15.7409 28.5397L28.9055 20.1783ZM31.4326 21.5586C31.6274 21.4664 31.7865 21.3141 31.8857 21.1249C32.0068 20.8978 32.0315 20.6327 31.9543 20.3877L31.4326 21.5586ZM31.4326 21.5586L16.4326 28.8991L31.4326 21.5586ZM29.5841 14.9191L29.0827 15.165L16.1842 21.4917L16.0082 21.5781L15.832 21.4918L2.94924 15.1779L2.35542 14.8869L2.88888 14.4961C3.00753 14.4091 3.08676 14.282 3.11236 14.1415C3.13795 14.0011 3.10846 13.8559 3.02886 13.7352C2.94915 13.6142 2.82464 13.5264 2.67955 13.4913C2.53438 13.4561 2.38126 13.477 2.25179 13.5489L2.24204 13.5543L2.24197 13.5542L0.707332 14.3514C0.599459 14.4091 0.514424 14.4989 0.46379 14.6066L0.462015 14.6104L0.461995 14.6103C0.397435 14.744 0.388606 14.8966 0.437062 15.0363C0.485467 15.1758 0.587857 15.2928 0.724323 15.361C0.724633 15.3612 0.724944 15.3613 0.725254 15.3615L15.7409 22.7186L29.5841 14.9191ZM29.5841 14.9191L29.1898 14.5235C29.0943 14.4277 29.0373 14.3027 29.0274 14.171C29.0175 14.0393 29.0551 13.9077 29.1348 13.7997C29.2146 13.6914 29.3317 13.6134 29.4661 13.581C29.5993 13.5489 29.7396 13.564 29.8621 13.6233M29.5841 14.9191L29.8621 13.6233M29.8621 13.6233L31.2874 14.3628L31.2881 14.3631C31.3841 14.4127 31.4634 14.4874 31.5175 14.578C31.5716 14.6685 31.5987 14.7716 31.5962 14.8758C31.5937 14.9799 31.5617 15.0817 31.5032 15.1698C31.4447 15.2578 31.3618 15.3288 31.2633 15.3739L31.2633 15.3738L31.2541 15.3783L16.257 22.7186C16.1771 22.7577 16.0887 22.7781 15.999 22.7781C15.9094 22.7781 15.8212 22.7578 15.7414 22.7189L29.8621 13.6233ZM16.2966 0.472604L31.3171 8.76255L15.7409 17.1234L0.723538 9.76543C0.723509 9.76541 0.72348 9.7654 0.723451 9.76539C0.628228 9.71858 0.548483 9.64753 0.492177 9.56051C0.435886 9.4735 0.404959 9.37358 0.402162 9.2714C0.399364 9.16922 0.424776 9.06788 0.476143 8.97816C0.527368 8.88868 0.602684 8.8138 0.694697 8.76209C0.695003 8.76192 0.695309 8.76174 0.695615 8.76157L15.7118 0.472595L15.7137 0.471544C15.8019 0.422226 15.902 0.396094 16.0042 0.396094C16.1063 0.396094 16.2064 0.422227 16.2947 0.471549L16.2966 0.472604ZM15.8242 15.8966L16.0004 15.9829L16.1765 15.8965L29.0827 9.5647L29.7718 9.22663L29.0999 8.85547L16.1937 1.72546L16.0004 1.61866L15.807 1.72538L2.88773 8.85539L2.21504 9.22664L2.90497 9.56477L15.8242 15.8966Z" fill="#F5F5F5" stroke="#08090C" stroke-width="0.8"/>
</svg>
