<svg width="30" height="33" viewBox="0 0 30 33" fill="none" xmlns="http://www.w3.org/2000/svg">
<path d="M0.16608 4.64661C5.20632 4.87954 10.1563 3.79336 14.9548 0.181584C20.4611 3.57586 25.4628 5.21784 29.7893 4.87987C30.1421 12.2741 28.9189 18.1467 26.3817 22.6272C23.8369 27.1212 19.9636 30.2264 15.0045 32.0626C10.2169 30.3439 6.41274 27.3918 3.85262 22.9177C1.29831 18.4538 -0.0242827 12.4628 0.16608 4.64661Z" stroke="#F5F5F5" stroke-width="0.3"/>
<path d="M2.33477 6.32985C6.63718 6.52356 10.8679 5.59475 14.9636 2.51265C19.6597 5.40614 23.9314 6.80942 27.6274 6.52642C27.9265 12.8364 26.8804 17.847 24.7152 21.67C22.5423 25.5064 19.2359 28.1586 15.0025 29.7287C10.9165 28.2604 7.67048 25.7397 5.48532 21.9208C3.30596 18.1121 2.17523 13.0002 2.33477 6.32985Z" stroke="#F5F5F5" stroke-width="0.3"/>
<path d="M20.778 16.5905C20.2894 16.2709 19.8381 16.0402 19.3052 15.9046C19.6978 15.7568 20.0786 15.6377 20.4444 15.557L20.4444 15.557C20.8642 15.4644 21.3423 15.413 21.7491 15.4732C21.7021 15.4698 21.6542 15.4697 21.6056 15.4734L21.0481 15.5151L21.5516 15.7581C21.9378 15.9444 22.1796 16.2611 22.3502 16.6741L22.4768 16.9806L22.6234 16.6831C22.7635 16.3987 22.6621 16.0754 22.4693 15.8471C22.3697 15.7292 22.2394 15.6278 22.089 15.56C22.4448 15.7034 22.6469 15.9957 22.6964 16.2924C22.7521 16.627 22.6153 16.9599 22.2852 17.1157L22.2851 17.1158C22.0613 17.2218 21.768 17.2351 21.4808 17.0823C21.3824 17.0295 21.279 16.9544 21.1606 16.8653C21.1469 16.8551 21.1331 16.8446 21.1191 16.8341C21.0146 16.7552 20.9001 16.6689 20.778 16.5905ZM20.778 16.5905C20.7782 16.5906 20.7784 16.5908 20.7786 16.5909L20.6965 16.7164L20.7775 16.5902C20.7777 16.5903 20.7778 16.5904 20.778 16.5905ZM12.1803 10.4912C12.0488 10.1215 11.92 9.75174 11.7912 9.37676C11.0533 7.27896 9.13223 7.40483 8.34071 8.45635L12.1803 10.4912ZM12.1803 10.4912C12.2205 10.6043 12.2646 10.7364 12.3125 10.8798M12.1803 10.4912L12.3125 10.8798M16.2466 11.968C16.4281 11.7555 16.5815 11.5402 16.7252 11.3342C16.7445 11.3066 16.7635 11.2791 16.7825 11.2519C16.9057 11.0746 17.0226 10.9065 17.1493 10.7477C17.4377 10.3861 17.7695 10.0823 18.3011 9.88732L18.3013 9.88725C19.5879 9.4133 20.897 10.2322 21.0986 11.4338L21.0986 11.4339C21.167 11.8398 21.1506 12.1563 21.0773 12.4123C21.0044 12.6671 20.8727 12.8708 20.6967 13.0481C20.519 13.2271 20.296 13.3795 20.0402 13.5294C19.892 13.6163 19.7412 13.6978 19.5842 13.7826C19.4642 13.8475 19.3405 13.9144 19.2115 13.9871L19.211 13.9874C18.8496 14.193 18.4403 14.4408 18.0754 14.7196C17.8005 14.9281 17.5454 15.1561 17.3527 15.396C17.1611 15.6347 17.022 15.8968 16.9999 16.1721L16.9999 16.1724C16.9686 16.5695 17.2734 16.892 17.6662 17.1524C18.07 17.4201 18.6262 17.662 19.2194 17.8863C19.6311 18.042 20.0678 18.1918 20.4903 18.3366C20.6771 18.4007 20.8611 18.4638 21.039 18.5261C21.6243 18.7309 22.1408 18.9257 22.4948 19.119L22.4946 19.1193L22.5039 19.1236C22.9858 19.3454 23.2837 19.6549 23.441 19.9869C23.5986 20.3199 23.6197 20.6859 23.53 21.0284C23.3498 21.7169 22.7282 22.2953 21.9028 22.3013L21.9023 22.3013C21.4544 22.3061 20.986 22.1189 20.4968 21.735L16.9591 18.6757C16.9588 18.6755 16.9586 18.6753 16.9584 18.6751C16.6751 18.4249 16.281 18.4364 16.0334 18.6443L16.0328 18.6448C15.9428 18.7212 15.9149 18.8385 15.907 18.9383C15.8986 19.044 15.9097 19.168 15.9313 19.2983C15.9748 19.5601 16.0664 19.8783 16.1687 20.1905C16.2715 20.5039 16.3874 20.8178 16.4816 21.0718L16.4839 21.0782C16.5795 21.3361 16.6465 21.5167 16.6624 21.5854C16.7905 22.1503 16.4655 22.5993 16.0827 22.7046C15.8945 22.7564 15.6858 22.7281 15.4934 22.5821C15.2984 22.4341 15.1092 22.156 14.9899 21.6903C14.8021 20.9524 14.3917 20.1237 13.9146 19.6946C13.6763 19.4802 13.3912 19.3399 13.0943 19.4129C12.7999 19.4852 12.5569 19.7524 12.3646 20.1969L12.364 20.1966L12.3596 20.21L12.2228 20.6295L12.2227 20.6299C12.1835 20.7511 12.1459 20.8876 12.1078 21.0264C12.0894 21.0932 12.0709 21.1606 12.052 21.227C11.9925 21.4359 11.9269 21.6439 11.843 21.8328C11.6742 22.2125 11.4458 22.4834 11.0771 22.5446L11.077 22.5446C10.758 22.5977 10.4359 22.4576 10.223 22.2166C10.012 21.9778 9.92412 21.6586 10.04 21.3599C10.1052 21.224 10.1882 21.0735 10.2788 20.9093C10.2963 20.8774 10.3142 20.8451 10.3322 20.8123C10.4432 20.6103 10.5604 20.392 10.6583 20.1702C10.8503 19.7354 10.9877 19.2458 10.8143 18.8162C10.7348 18.6159 10.5562 18.4409 10.4069 18.3314L10.4065 18.3311C10.0714 18.087 9.72458 18.0287 9.38518 18.0346C9.21738 18.0375 9.04943 18.0562 8.8867 18.0759C8.86447 18.0786 8.84235 18.0813 8.82033 18.084C8.67899 18.1014 8.54172 18.1182 8.40364 18.127L8.40346 18.127C7.96854 18.1552 7.6465 18.1205 7.40364 18.0288C6.64288 17.7397 6.46184 16.9628 6.75724 16.3806C6.89181 16.1157 7.05203 15.963 7.22635 15.8704C7.40389 15.776 7.60781 15.7376 7.84061 15.7215C7.95682 15.7134 8.07714 15.7111 8.20338 15.7092C8.2146 15.709 8.22585 15.7088 8.23716 15.7087C8.35195 15.707 8.47141 15.7052 8.59162 15.6991C8.85611 15.6857 9.13458 15.6512 9.4088 15.5453C10.0061 15.3155 10.3657 14.9992 10.5306 14.6174C10.6948 14.2373 10.6522 13.8239 10.5137 13.4284C10.2484 12.6705 9.60299 11.9038 9.17414 11.3944C9.15973 11.3773 9.14556 11.3605 9.13166 11.3439L9.13132 11.3435C8.76018 10.9054 8.39537 10.4643 8.22168 9.99829C8.13612 9.76874 8.09896 9.53752 8.12952 9.30101C8.16003 9.06484 8.25927 8.81397 8.46055 8.54656C8.8243 8.06333 9.44871 7.79291 10.0641 7.88394C10.6707 7.97367 11.2955 8.42007 11.6495 9.42597C11.7784 9.80119 11.9073 10.1713 12.0389 10.5415L12.039 10.5416C12.0787 10.6531 12.1224 10.784 12.1705 10.9281L12.1748 10.9412C12.2244 11.0899 12.2784 11.2516 12.3366 11.4169L12.3367 11.4172C12.7497 12.5817 13.3197 13.2255 14.0383 13.2904C14.3926 13.3224 14.7583 13.2092 15.1249 12.983C15.4913 12.7569 15.8669 12.4129 16.2466 11.968ZM16.2466 11.968L16.1329 11.8708L16.2466 11.9679C16.2466 11.9679 16.2466 11.9679 16.2466 11.968ZM12.3125 10.8798C12.3634 11.0325 12.4186 11.198 12.4781 11.367L12.3125 10.8798ZM14.3154 7.88773L14.4558 8.09437L14.5722 7.87326C14.8064 7.42811 15.15 6.9786 15.5966 6.70397L15.8957 6.52004L15.5561 6.43109C15.3656 6.38121 15.1724 6.43325 15.0067 6.52387C14.8397 6.61516 14.6853 6.75341 14.561 6.90484C14.4368 7.05608 14.3361 7.22845 14.2833 7.39374C14.2325 7.55243 14.2153 7.7404 14.3154 7.88773ZM9.19554 10.7146L9.42577 10.708L9.32667 10.5001C9.04899 9.91751 8.98474 9.2229 9.17565 8.6337L9.27838 8.31667L8.97295 8.44999C8.7501 8.54727 8.61339 8.75304 8.53854 8.9763C8.46321 9.20095 8.44323 9.46233 8.46675 9.70833C8.4902 9.9536 8.55821 10.1971 8.67122 10.383C8.78337 10.5676 8.95839 10.7213 9.19554 10.7146ZM19.2853 12.8984L19.0581 13.1192L19.3729 13.155C19.8853 13.2133 20.3274 12.8446 20.5655 12.4183C20.8027 11.9936 20.8838 11.4275 20.5719 11.0397L20.3244 10.7319L20.3052 11.1264C20.2655 11.9418 19.8008 12.3972 19.2853 12.8984ZM5.05071 14.0214L5.19784 14.2371L5.31006 14.0013C5.48104 13.6422 5.75299 13.2867 6.12189 13.0728L6.43999 12.8883L6.08363 12.7977C5.9202 12.7561 5.75654 12.8017 5.61902 12.8772C5.48022 12.9533 5.35261 13.0677 5.25025 13.1923C5.14806 13.3166 5.06453 13.459 5.02047 13.5969C4.97848 13.7283 4.96189 13.8912 5.05071 14.0214ZM7.15047 16.8809L6.95505 16.7211L6.90811 16.9691C6.87712 17.1329 6.96205 17.2869 7.06123 17.4017C7.16511 17.5219 7.31098 17.6309 7.4684 17.7141C7.626 17.7973 7.80425 17.8595 7.97659 17.8781C8.1473 17.8966 8.33001 17.8739 8.47441 17.7641L8.75048 17.5543L8.40851 17.4968C7.94366 17.4186 7.50038 17.1672 7.15047 16.8809ZM13.9737 10.7635C13.8984 10.137 13.8633 9.53907 13.8863 8.97909L13.8864 8.97883C13.9128 8.30612 14.0454 7.54395 14.3645 7.00682L14.3645 7.00674C14.6882 6.46126 15.2397 6.24436 15.7354 6.29345C16.2328 6.34271 16.6564 6.65517 16.7553 7.16073C16.8212 7.50151 16.7333 7.8967 16.4123 8.22234C16.3018 8.33392 16.1602 8.44313 15.9984 8.564C15.979 8.57854 15.9593 8.59323 15.9393 8.60808C15.7964 8.71451 15.6421 8.82942 15.4953 8.95629C14.848 9.5137 14.3561 10.0494 13.9737 10.7635ZM5.9427 14.4143L5.94181 14.4145C5.6236 14.4849 5.35007 14.3897 5.16403 14.2257C4.89278 13.9854 4.85703 13.6289 5.00771 13.3226C5.15804 13.0169 5.49272 12.7706 5.9518 12.7809C6.41276 12.7932 6.94289 13.0002 7.38324 13.2398C7.71019 13.4198 8.04131 13.6401 8.37584 13.891C7.82426 13.8737 7.32385 13.9676 6.76079 14.1339L6.76079 14.1339L6.75869 14.1345C6.62692 14.1756 6.49872 14.2244 6.38053 14.2693C6.35784 14.278 6.33551 14.2865 6.3136 14.2948C6.17427 14.3474 6.05245 14.3907 5.9427 14.4143ZM8.41316 18.2767C7.96776 18.3055 7.62163 18.2714 7.35064 18.1692C6.49472 17.844 6.29349 16.9629 6.62351 16.3126L8.41316 18.2767ZM17.8738 23.1808C18.245 23.1808 18.5395 23.4735 18.5395 23.828C18.5395 24.1825 18.245 24.4751 17.8738 24.4751C17.5027 24.4751 17.2082 24.1825 17.2082 23.828C17.2082 23.4758 17.503 23.1808 17.8738 23.1808ZM7.31844 20.1652C7.51522 20.1652 7.6675 20.3189 7.6675 20.503C7.6675 20.687 7.51522 20.8407 7.31844 20.8407C7.12166 20.8407 6.96938 20.687 6.96938 20.503C6.96938 20.3216 7.12434 20.1652 7.31844 20.1652ZM13.7767 23.1625C13.8869 23.1625 13.9702 23.2499 13.9702 23.3481C13.9702 23.4456 13.885 23.5338 13.7767 23.5338C13.6666 23.5338 13.5833 23.4464 13.5833 23.3481C13.5833 23.248 13.6658 23.1625 13.7767 23.1625Z" fill="#F5F5F5" stroke="#F5F5F5" stroke-width="0.3"/>
</svg>
