<svg width="54" height="53" viewBox="0 0 54 53" fill="none" xmlns="http://www.w3.org/2000/svg">
<path d="M18.8259 4.13598C20.2389 5.54903 20.7683 7.60671 20.4823 9.78393C20.1834 12.0551 19.0052 14.4543 17.0201 16.4394C15.035 18.4245 12.6358 19.6027 10.3646 19.9016C8.18743 20.1876 6.12975 19.6582 4.7167 18.2452C3.30365 16.8321 2.77429 14.7787 3.06031 12.5972C3.35915 10.3261 4.5374 7.92689 6.52251 5.94179C8.50761 3.95668 10.9068 2.77843 13.1779 2.47959C15.3552 2.1893 17.4128 2.72293 18.8259 4.13598ZM8.52042 6.27477C8.05082 6.57787 7.91848 7.20542 8.22159 7.67502C8.52469 8.14461 9.15224 8.27695 9.62183 7.97385C10.2707 7.55122 10.8812 7.30361 11.4533 7.17981C12.0082 7.06028 12.5205 7.05601 12.9901 7.12858C13.9549 7.278 14.7233 7.68356 15.2655 8.2428C15.7351 8.7252 16.0382 9.33141 16.1449 9.97603C16.2517 10.6335 16.162 11.3379 15.8504 12.0209C15.4491 12.8961 14.6806 13.7328 13.4896 14.3945C13.0285 14.6506 12.576 14.8598 12.1363 15.0092C11.7307 15.1458 11.3423 15.227 10.9751 15.2398C10.3305 15.2611 9.66025 15.0007 9.10101 14.5866C8.69118 14.2792 8.35393 13.8907 8.15755 13.4766C7.98252 13.1095 7.90995 12.721 7.9996 12.3539C8.08071 12.0124 8.30697 11.658 8.71679 11.3208C9.16931 10.9494 9.7371 10.6975 10.2793 10.6207C10.6037 10.5737 10.9025 10.5908 11.1331 10.6847C11.3038 10.753 11.4447 10.8811 11.5258 11.0732C11.6368 11.325 11.6752 11.6836 11.6112 12.1746C11.5429 12.7296 11.9357 13.2333 12.4864 13.3059C13.0371 13.3785 13.5451 12.9814 13.6177 12.4307C13.7287 11.5556 13.6305 10.8384 13.3786 10.2663C13.067 9.5534 12.5419 9.07953 11.8972 8.81485C11.3166 8.57579 10.6507 8.52029 9.98897 8.61421C9.09247 8.74228 8.16182 9.15638 7.42754 9.75831C6.65058 10.3987 6.21087 11.1287 6.0273 11.8843C5.82238 12.7338 5.95899 13.5834 6.32613 14.3475C6.67192 15.0647 7.22263 15.7094 7.88433 16.2046C8.7851 16.8833 9.9164 17.2974 11.0349 17.2633C11.6155 17.2462 12.2003 17.1267 12.7852 16.9303C13.3359 16.7425 13.8994 16.4821 14.4715 16.1661C16.0638 15.2825 17.1183 14.1127 17.6861 12.8747C18.1727 11.816 18.3136 10.7018 18.1386 9.65585C17.9635 8.6014 17.4769 7.62379 16.7127 6.83829C15.8802 5.98021 14.7191 5.35693 13.2932 5.13494C12.5845 5.02394 11.8247 5.02394 11.0178 5.20324C10.2366 5.36547 9.39984 5.70699 8.52042 6.27477ZM42.4337 35.6799C42.6471 36.1965 43.2405 36.4441 43.7571 36.2264C44.2737 36.0129 44.5213 35.4195 44.3035 34.903C44.0389 34.2754 43.3515 33.4045 42.5404 32.3714C41.1359 30.5912 39.3045 28.2732 39.2703 26.779C39.2575 26.2197 38.7965 25.7758 38.2372 25.7886C37.678 25.8014 37.234 26.2624 37.2468 26.8217C37.298 28.9946 39.3643 31.6158 40.9523 33.6265C41.6695 34.5316 42.2715 35.2957 42.4337 35.6799ZM35.4965 42.869C35.0269 42.5659 34.3994 42.6982 34.0963 43.1678C33.7932 43.6374 33.9255 44.265 34.3951 44.5681C36.9053 46.1946 38.233 47.9577 39.3301 49.4135C39.693 49.8959 40.0345 50.3484 40.3888 50.7625C40.1113 50.7924 39.8338 50.8094 39.5606 50.8094C38.2714 50.8009 36.9992 50.3911 35.8551 49.3878L24.0085 37.5412C24.6446 37.6224 25.2636 37.759 25.8698 37.9425C27.2402 38.3566 28.538 39.0183 29.7888 39.8721C30.2498 40.1881 30.8817 40.0685 31.1976 39.6075C31.5135 39.1464 31.394 38.5146 30.9329 38.1987C29.5156 37.2296 28.0299 36.474 26.4589 36.0001C25.016 35.5647 23.5005 35.3598 21.9039 35.4366L8.43931 21.972C9.15224 22.0275 9.88224 22.0062 10.6251 21.908C10.9367 21.8653 11.2483 21.8141 11.56 21.7458C16.0553 26.3649 20.9946 29.9765 25.5496 32.7685C30.2157 35.633 34.4805 37.6394 37.4346 38.9927C37.9427 39.2232 38.5446 39.0013 38.7751 38.4932C39.0057 37.9852 38.7837 37.3833 38.2756 37.1528C35.377 35.8251 31.1933 33.8528 26.6041 31.0395C22.4162 28.4695 17.8995 25.1952 13.7329 21.0627C14.9966 20.5376 16.2346 19.7991 17.383 18.8514C18.3904 20.1107 19.5431 21.1567 20.5975 22.1129C21.6306 23.0478 22.5613 23.8931 23.0565 24.6957C23.3511 25.1696 23.9744 25.319 24.4482 25.0244C24.9221 24.7298 25.0715 24.1066 24.7769 23.6327C24.1323 22.5868 23.0992 21.6519 21.9508 20.6145C20.9263 19.6881 19.7992 18.6678 18.86 17.4554C20.145 16.068 21.1098 14.5183 21.7331 12.9302C23.9146 14.1255 25.3234 16.3412 26.8005 18.6593C28.5636 21.4299 30.4121 24.3414 33.8017 26.2155C34.2926 26.4844 34.9074 26.3051 35.1763 25.8142C35.4453 25.3232 35.266 24.7085 34.775 24.4396C31.8465 22.8216 30.1389 20.1321 28.5123 17.5749C26.809 14.894 25.1868 12.3411 22.3308 10.9579C22.3948 10.6505 22.4503 10.3432 22.4887 10.0401C22.5869 9.29725 22.6083 8.56298 22.5528 7.85005L50.0582 35.3811C50.5876 36.0855 50.8907 36.7984 51.0401 37.5242C51.2023 38.2926 51.198 39.0994 51.1255 39.9362C51.0444 40.8882 50.7754 41.8615 50.357 42.8178C49.8874 42.5616 49.4392 42.203 49.008 41.7591C48.2951 41.0205 47.6334 40.0386 47.0101 38.8689C46.7454 38.3737 46.1307 38.1859 45.6397 38.4463C45.1445 38.711 44.9567 39.3257 45.2171 39.8166C45.9215 41.1443 46.6942 42.2756 47.548 43.1593C48.1243 43.757 48.7348 44.2394 49.388 44.598C49.294 44.7431 49.1959 44.8925 49.0934 45.0334C48.4915 45.8915 47.7871 46.6983 47.0144 47.4155L46.8692 47.232C45.5245 45.5457 43.407 42.8861 41.1871 41.917C40.6749 41.695 40.0772 41.9298 39.8552 42.4421C39.6332 42.9544 39.868 43.5521 40.3803 43.774C42.1349 44.5382 44.0645 46.9588 45.2854 48.4913L45.4434 48.6877C45.1445 48.8969 44.8414 49.089 44.5298 49.2683C43.9279 49.6184 43.3003 49.9257 42.6557 50.1776C42.0751 49.6781 41.5457 48.978 40.9481 48.184C39.757 46.613 38.3098 44.6962 35.4965 42.869ZM47.4712 49.6995C47.5053 49.6781 47.5352 49.6525 47.5651 49.6269L47.5907 49.6013C48.786 48.6237 49.8661 47.4582 50.7541 46.1946C51.0999 45.6994 51.42 45.1871 51.7018 44.662C51.7317 44.6193 51.753 44.5724 51.7744 44.5254C52.53 43.0953 53.0209 41.584 53.1447 40.1027C53.2301 39.1037 53.2258 38.109 53.0167 37.1101C52.8032 36.094 52.3848 35.0951 51.6335 34.1175C51.6121 34.0876 51.5908 34.062 51.5652 34.0364L51.5481 34.0193V34.015L51.531 33.9979L20.0724 2.50521C20.0298 2.46252 19.9871 2.42836 19.9401 2.39421C18.0831 0.737822 15.5558 0.12308 12.9175 0.468873C10.2152 0.823203 7.38912 2.19784 5.08384 4.50312C2.77856 6.8084 1.40392 9.63451 1.04959 12.3368C0.7038 14.9751 1.32281 17.5066 2.97493 19.3637C3.00908 19.4063 3.04324 19.4533 3.08166 19.4917L34.5061 50.9162C34.5701 50.9802 34.6384 51.0314 34.711 51.0741C36.2052 52.3121 37.8616 52.8201 39.5393 52.833C41.6268 52.85 43.7144 52.0901 45.5416 51.0314C46.2075 50.6429 46.8564 50.199 47.4712 49.6995ZM28.3757 26.1045C27.8592 25.891 27.2658 26.1344 27.0523 26.6509C26.8389 27.1675 27.0822 27.7609 27.5988 27.9743C27.9873 28.1365 28.8581 28.747 29.9169 29.4856C31.3342 30.476 33.0631 31.6884 34.6512 32.5294C35.1464 32.7898 35.7569 32.602 36.0216 32.1068C36.282 31.6115 36.0942 31.0011 35.599 30.7364C34.1005 29.9423 32.4399 28.7812 31.078 27.8292C29.9083 27.0181 28.9478 26.3478 28.3757 26.1045Z" fill="#F5F5F5"/>
</svg>
