<svg width="46" height="47" viewBox="0 0 46 47" fill="none" xmlns="http://www.w3.org/2000/svg">
<path d="M23.1605 24.242L12.2139 16.7672L15.1377 13.7591L19.8979 16.3115L17.6872 11.3891L21.8947 7.19588L26.7975 13.0754L21.8947 6.7401L26.7975 2L34.2141 12.5741L23.1605 24.242Z" stroke="#08090C" stroke-width="2" stroke-miterlimit="10"/>
<path d="M34.2197 12.574C34.2197 12.574 35.2894 11.1155 36.27 12.574C37.2505 14.0325 40.9053 17.4417 40.9053 17.4417L27.8193 30.632L23.1661 25.6549C23.1661 25.6549 22.3727 25.0806 23.1661 24.2419" stroke="#08090C" stroke-width="2" stroke-miterlimit="10"/>
<path d="M31.8555 26.5582C31.8555 26.5582 33.6561 26.4306 35.7599 28.91C35.7599 28.91 38.1846 34.908 39.7624 34.908C41.3402 34.908 44.5493 34.8898 44.995 29.7486C44.995 29.7486 45.307 29.0376 40.8945 26.5582C36.4819 24.0787 36.8653 21.499 36.8653 21.499" stroke="#08090C" stroke-width="2" stroke-miterlimit="10"/>
<path d="M12.2148 16.7676C12.2148 16.7676 3.81758 17.2598 1.23247 19.2014C-1.35265 21.1431 18.4369 23.9324 20.2643 22.2643" stroke="#08090C" stroke-width="2" stroke-miterlimit="10"/>
<path d="M4.81934 21.2789C4.81934 21.2789 6.40606 19.4011 16.6128 19.7657" stroke="#08090C" stroke-width="2" stroke-miterlimit="10"/>
<path d="M1.06738 19.7656V22.947C1.06738 22.947 8.10069 27.2404 22.8091 24.9889" stroke="#08090C" stroke-width="2" stroke-miterlimit="10"/>
<path d="M2.3924 23.5762L2.19629 43.5666C2.19629 43.5666 14.3374 49.036 28.9567 43.5666V29.7474" stroke="#08090C" stroke-width="2" stroke-miterlimit="10"/>
<path d="M5.19141 27.2871V28.9097" stroke="#08090C" stroke-width="2" stroke-miterlimit="10"/>
<path d="M5.19141 32.0811V41.7436" stroke="#08090C" stroke-width="2" stroke-miterlimit="10"/>
</svg>
